<?xml version="1.0" encoding="utf-8"?>
<!-- Generator: Adobe Illustrator 21.1.0, SVG Export Plug-In . SVG Version: 6.00 Build 0)  -->
<svg version="1.1" id="Layer_1" xmlns="http://www.w3.org/2000/svg" xmlns:xlink="http://www.w3.org/1999/xlink" x="0px" y="0px"
	 viewBox="0 0 14 14" style="enable-background:new 0 0 14 14;" xml:space="preserve">
<style type="text/css">
	.st0{fill:#D8D8D8;stroke:#FFFFFF;}
	.st1{fill:#F0F0F0;}
	.st2{fill:#0052B4;}
	.st3{fill:#D80027;}
</style>
<title>0F8493DC-08C9-4127-B7A5-2AF4FDF4FAE2</title>
<desc>Created with sketchtool.</desc>
<g id="Page-1-Copy">
	<g id="_x30_-Sign-in-Empty" transform="translate(-1304.000000, -33.000000)">
		<g id="UI_x2F_Molecules_x2F_Language-Toggle_x2F_EN" transform="translate(1244.000000, 24.000000)">
			<g id="Ico">
				<g transform="translate(60.000000, 8.000000)">
					<circle id="Oval" class="st0" cx="6.9" cy="7.7" r="6"/>
					<g id="united-kingdom" transform="translate(1.000000, 2.000000)">
						<circle id="Oval_1_" class="st1" cx="5.9" cy="5.7" r="5.5"/>
						<g id="Group" transform="translate(0.187500, 0.187500)">
							<path id="Path" class="st2" d="M1.4,2.1c-0.4,0.6-0.8,1.2-1,1.9h2.9L1.4,2.1z"/>
							<path id="Path_1_" class="st2" d="M11.1,4.1c-0.2-0.7-0.5-1.4-1-1.9L8.2,4.1H11.1z"/>
							<path id="Path_2_" class="st2" d="M0.4,6.9c0.2,0.7,0.5,1.4,1,1.9l1.9-1.9H0.4L0.4,6.9z"/>
							<path id="Path_3_" class="st2" d="M9.1,1.1c-0.6-0.4-1.2-0.8-1.9-1V3L9.1,1.1z"/>
							<path id="Path_4_" class="st2" d="M2.4,9.9c0.6,0.4,1.2,0.8,1.9,1V8L2.4,9.9z"/>
							<path id="Path_5_" class="st2" d="M4.3,0.2c-0.7,0.2-1.4,0.5-1.9,1L4.3,3V0.2z"/>
							<path id="Path_6_" class="st2" d="M7.2,10.8c0.7-0.2,1.4-0.5,1.9-1L7.2,8V10.8z"/>
							<path id="Path_7_" class="st2" d="M8.2,6.9l1.9,1.9c0.4-0.6,0.8-1.2,1-1.9H8.2z"/>
						</g>
						<g id="Group_1_">
							<path id="Path_8_" class="st3" d="M11.4,5H6.7h0V0.2c-0.2,0-0.5,0-0.7,0c-0.2,0-0.5,0-0.7,0V5v0H0.4c0,0.2,0,0.5,0,0.7
								c0,0.2,0,0.5,0,0.7h4.8h0v4.8c0.2,0,0.5,0,0.7,0c0.2,0,0.5,0,0.7,0V6.4v0h4.8c0-0.2,0-0.5,0-0.7C11.5,5.4,11.5,5.2,11.4,5z"
								/>
							<path id="Path_9_" class="st3" d="M2.2,1.6C2,1.7,1.9,1.9,1.8,2l2.6,2.5l0.3,0l0-0.3L2.2,1.6z"/>
							<path id="Path-Copy-2" class="st3" d="M9.8,1.6C9.9,1.7,10,1.9,10.1,2L7.5,4.5l-0.3,0l0-0.3L9.8,1.6z"/>
							<path id="Path-Copy" class="st3" d="M1.9,9.4C2,9.6,2.1,9.7,2.2,9.8l2.5-2.6l0-0.3l-0.3,0L1.9,9.4z"/>
							<path id="Path-Copy-3" class="st3" d="M10,9.4C9.9,9.6,9.8,9.7,9.7,9.8L7.1,7.2l0-0.3l0.3,0L10,9.4z"/>
						</g>
					</g>
				</g>
			</g>
		</g>
	</g>
</g>
</svg>
