<?xml version="1.0" encoding="UTF-8"?>
<svg width="20px" height="14px" viewBox="0 0 20 14" version="1.1" xmlns="http://www.w3.org/2000/svg" xmlns:xlink="http://www.w3.org/1999/xlink">
    <!-- Generator: sketchtool 53.1 (72631) - https://sketchapp.com -->
    <title>33A87F83-E9AE-4387-AE6B-BD2465576432</title>
    <desc>Created with sketchtool.</desc>
    <g id="Page-1" stroke="none" stroke-width="1" fill="none" fill-rule="evenodd">
        <g id="0-Set-New-Password-Full" transform="translate(-1116.000000, -272.000000)">
            <g id="Form" transform="translate(736.000000, 48.000000)">
                <g transform="translate(0.000000, 105.000000)" id="Field">
                    <g transform="translate(0.000000, 82.000000)">
                        <g id="Icon-EYE" transform="translate(380.000000, 34.000000)">
                            <rect id="Rectangle" x="0" y="0" width="20" height="20"></rect>
                            <path d="M10,7.5 C10.4400022,7.5 10.8533314,7.6133322 11.24,7.84 C11.6266686,8.0666678 11.9333322,8.3733314 12.16,8.76 C12.3866678,9.1466686 12.5,9.5599978 12.5,10 C12.5,10.4400022 12.3866678,10.8533314 12.16,11.24 C11.9333322,11.6266686 11.6266686,11.9333322 11.24,12.16 C10.8533314,12.3866678 10.4400022,12.5 10,12.5 C9.5599978,12.5 9.1466686,12.3866678 8.76,12.16 C8.3733314,11.9333322 8.0666678,11.6266686 7.84,11.24 C7.6133322,10.8533314 7.5,10.4400022 7.5,10 C7.5,9.5599978 7.6133322,9.1466686 7.84,8.76 C8.0666678,8.3733314 8.3733314,8.0666678 8.76,7.84 C9.1466686,7.6133322 9.5599978,7.5 10,7.5 Z M10,14.18 C10.7600038,14.18 11.4599968,13.9933352 12.1,13.62 C12.7400032,13.2466648 13.2466648,12.7400032 13.62,12.1 C13.9933352,11.4599968 14.18,10.7600038 14.18,10 C14.18,9.2399962 13.9933352,8.5400032 13.62,7.9 C13.2466648,7.2599968 12.7400032,6.7533352 12.1,6.38 C11.4599968,6.0066648 10.7600038,5.82 10,5.82 C9.2399962,5.82 8.5400032,6.0066648 7.9,6.38 C7.2599968,6.7533352 6.7533352,7.2599968 6.38,7.9 C6.0066648,8.5400032 5.82,9.2399962 5.82,10 C5.82,10.7600038 6.0066648,11.4599968 6.38,12.1 C6.7533352,12.7400032 7.2599968,13.2466648 7.9,13.62 C8.5400032,13.9933352 9.2399962,14.18 10,14.18 Z M10,3.74 C11.3733402,3.74 12.6799938,4.006664 13.92,4.54 C15.120006,5.0600026 16.1766621,5.7933286 17.09,6.74 C18.0033379,7.6866714 18.6999976,8.7733272 19.18,10 C18.6999976,11.2266728 18.0033379,12.3099953 17.09,13.25 C16.1766621,14.1900047 15.120006,14.9199974 13.92,15.44 C12.6799938,15.973336 11.3733402,16.24 10,16.24 C8.6266598,16.24 7.3200062,15.973336 6.08,15.44 C4.879994,14.9199974 3.8233379,14.1900047 2.91,13.25 C1.9966621,12.3099953 1.3000024,11.2266728 0.82,10 C1.3000024,8.7733272 1.9966621,7.6866714 2.91,6.74 C3.8233379,5.7933286 4.879994,5.0600026 6.08,4.54 C7.3200062,4.006664 8.6266598,3.74 10,3.74 Z" id="" fill="#73797E" fill-rule="nonzero" opacity="0.501348586"></path>
                        </g>
                    </g>
                </g>
            </g>
        </g>
    </g>
</svg>