<?xml version="1.0" encoding="UTF-8"?>
<svg width="128px" height="128px" viewBox="0 0 128 128" version="1.1" xmlns="http://www.w3.org/2000/svg" xmlns:xlink="http://www.w3.org/1999/xlink">
    <!-- Generator: sketchtool 53.1 (72631) - https://sketchapp.com -->
    <title>AFB1D289-55D7-4472-89B5-8FDCA939C990</title>
    <desc>Created with sketchtool.</desc>
    <g id="Page-1-Copy" stroke="none" stroke-width="1" fill="none" fill-rule="evenodd">
        <g id="0-Sended-Link" transform="translate(-878.000000, -177.000000)" fill-rule="nonzero">
            <g id="Form" transform="translate(736.000000, 48.000000)">
                <g id="Top">
                    <g id="paper-plane" transform="translate(142.000000, 129.000000)">
                        <polyline id="Path" fill="#FFE583" points="124.5835 4.75 75.036 76.27575 69.8715 83.73125 69.8715 108.76625 88.699 90.36575 79.0835 72.41675"></polyline>
                        <polyline id="Path" fill="#FFE583" points="52.37625 78.37875 16 67.25 125.5 2.5 125.5 100.75 70.75 84"></polyline>
                        <polygon id="Path" fill="#FFB607" points="69.8715 108.76625 53.33825 78.67325 124.5835 4.75 71.408 81.513"></polygon>
                        <path d="M126.73875,0.3285 C125.959,-0.1165 125,-0.109 124.2275,0.348 L78.414,27.439 C77.2255,28.14175 76.83175,29.67475 77.5345,30.86325 C78.237,32.0515 79.77,32.44525 80.95875,31.74275 L113.82925,12.3055 L52.60275,75.83375 L22.15075,66.51725 L61.892,43.01725 C63.0805,42.31425 63.47425,40.78125 62.7715,39.59275 C62.069,38.4045 60.53575,38.01025 59.34725,38.71325 L14.7275,65.098 C13.875,65.60225 13.40025,66.562 13.5175,67.54575 C13.63475,68.5295 14.3215,69.351 15.2685,69.64075 L51.63575,80.76675 L67.68,109.97 C67.69675,110.00025 67.714,110.02575 67.73175,110.0485 C67.9995,110.495 68.40075,110.85975 68.90125,111.07025 C69.2145,111.202 69.54375,111.26625 69.87075,111.26625 C70.5115,111.26625 71.14225,111.01975 71.6185,110.554 L90.067,92.524 L124.7685,103.1405 C125.0085,103.21375 125.25475,103.25 125.49975,103.25 C126.02875,103.25 126.55125,103.082 126.98675,102.75975 C127.624,102.28825 128,101.5425 128,100.75 L128,2.5 C128,1.60225 127.5185,0.77325 126.73875,0.3285 Z M104.896,28.78 L67.81625,82.3075 C67.52675,82.72575 67.3715,83.22225 67.3715,83.731 L67.3715,99.02375 L56.41575,79.0825 L104.896,28.78 Z M72.3715,102.82725 L72.3715,87.1105 L84.619,90.8575 L72.3715,102.82725 Z M73.87525,82.34175 L123,11.426 L123,97.37075 L73.87525,82.34175 Z" id="Shape" fill="#151F28"></path>
                        <path d="M41.10575,86.89425 C40.12925,85.918 38.54675,85.918 37.57,86.89425 L14.232,110.23225 C13.25575,111.2085 13.25575,112.7915 14.232,113.768 C14.7205,114.256 15.36025,114.5 16,114.5 C16.63975,114.5 17.2795,114.256 17.76775,113.76775 L41.10575,90.42975 C42.082,89.45375 42.082,87.87075 41.10575,86.89425 Z" id="Path" fill="#151F28"></path>
                        <path d="M6.48225,117.98225 L0.73225,123.73225 C-0.244,124.7085 -0.244,126.2915 0.73225,127.268 C1.2205,127.756 1.86025,128 2.5,128 C3.13975,128 3.7795,127.75575 4.26775,127.26775 L10.01775,121.51775 C10.994,120.5415 10.994,118.9585 10.01775,117.982 C9.04125,117.00625 7.45875,117.00625 6.48225,117.98225 Z" id="Path" fill="#151F28"></path>
                        <path d="M33.895,122.8525 C33.23475,122.8525 32.5925,123.12 32.1275,123.585 C31.6625,124.05 31.395,124.6925 31.395,125.3525 C31.395,126.01 31.66225,126.655 32.1275,127.12 C32.5925,127.585 33.2375,127.8525 33.895,127.8525 C34.5525,127.8525 35.1975,127.585 35.66225,127.12 C36.12725,126.655 36.395,126.01 36.395,125.3525 C36.395,124.6925 36.1275,124.05 35.66225,123.585 C35.1975,123.12 34.5525,122.8525 33.895,122.8525 Z" id="Path" fill="#151F28"></path>
                        <path d="M50.72725,104.98375 L38.36575,117.345 C37.3895,118.32125 37.3895,119.90425 38.36575,120.8805 C38.854,121.36875 39.49375,121.61275 40.1335,121.61275 C40.77325,121.61275 41.413,121.3685 41.90125,120.8805 L54.26275,108.51925 C55.239,107.543 55.239,105.96 54.26275,104.98375 C53.287,104.0075 51.7045,104.0075 50.72725,104.98375 Z" id="Path" fill="#151F28"></path>
                        <path d="M93.3905,104.03475 L80.9955,116.42975 C80.01925,117.406 80.01925,118.989 80.9955,119.9655 C81.48375,120.4535 82.1235,120.69775 82.76325,120.69775 C83.403,120.69775 84.04275,120.4535 84.531,119.9655 L96.926,107.5705 C97.90225,106.59425 97.90225,105.01125 96.926,104.03475 C95.9495,103.05875 94.367,103.05875 93.3905,104.03475 Z" id="Path" fill="#151F28"></path>
                        <path d="M69.1075,38.345 C69.765,38.345 70.41,38.08 70.875,37.6125 C71.33975,37.1475 71.6075,36.505 71.6075,35.8475 C71.6075,35.1875 71.34,34.5425 70.875,34.0775 C70.41,33.6125 69.765,33.345 69.1075,33.345 C68.45,33.345 67.805,33.6125 67.34,34.0775 C66.87525,34.5425 66.6075,35.1875 66.6075,35.8475 C66.6075,36.505 66.875,37.1475 67.34,37.6125 C67.805,38.08 68.45,38.345 69.1075,38.345 Z" id="Path" fill="#000000"></path>
                    </g>
                </g>
            </g>
        </g>
    </g>
</svg>